:SAMPLES-PER-SECOND 30
:FULLY-SPECIFIED
:DEGREES
327
root  7.17777 34.0989 -7.12347 15.3132 -38.5079 -2.43668
RightUpLeg  -51.5497 -5.64436 11.5144
RightLeg  59.9518 -11.4074 -20.757
RightFoot  -17.7653 0.214747 5.98218
RightToes  5.82063e-011 0 -3.6325e-017
Spine  46.3767 -2.37999 8.97475
Spine1  -25.0291 1.00934 -4.44189
HEad  -56.1906 -20.0147 19.0681
LeftShoulder1  0.0989633 4.53724 20.5832
LeftArm  114.96 -74.6953 164.891
LeftForeArm  138.762 -76.6769 -133.089
LeftHand  -1.01091 1.10433 27.1394
RightShoulder  -0.142684 -1.68694 -18.9853
RightArm  -66.7655 49.8871 -27.0127
RightForeArm  -8.9645 -6.11656 2.68443
RightHand  0.180778 -7.85357 -9.89921
LeftUpLeg  -57.3119 -16.3583 8.53101
LeftLeg  58.4273 -3.81236 -6.11212
LeftFoot  -14.3206 -0.0641327 -5.73154
LeftToes  -1.1369e-010 2.7689e-011 -1.90827e-011
328
root  7.09057 33.2893 -7.16462 15.1154 -39.0576 -3.39615
RightUpLeg  -52.9354 -5.99152 12.8788
RightLeg  63.9879 -9.56451 -20.9306
RightFoot  -20.0107 0.311441 5.89777
RightToes  5.82063e-011 0 -3.6325e-017
Spine  46.6016 -2.28153 8.20471
Spine1  -23.7333 0.920843 -4.25162
HEad  -57.4147 -19.2767 18.994
LeftShoulder1  0.0818414 4.37017 20.4357
LeftArm  111.925 -74.3315 167.538
LeftForeArm  139.242 -76.4438 -134.038
LeftHand  -0.98896 1.19332 27.1124
RightShoulder  -0.172741 -1.05641 -17.9848
RightArm  -66.3373 51.9661 -22.5704
RightForeArm  -9.23182 -6.06488 2.41221
RightHand  0.153214 -8.20133 -7.78883
LeftUpLeg  -58.8873 -15.9487 9.35467
LeftLeg  63.1425 -3.29088 -6.4077
LeftFoot  -17.1278 -0.214121 -6.24695
LeftToes  -1.1369e-010 2.7689e-011 -1.90827e-011
329
root  7.10132 32.6516 -7.15849 15.1441 -40.0603 -3.79379
RightUpLeg  -54.4746 -5.95886 13.5074
RightLeg  67.0722 -8.09902 -20.7893
RightFoot  -21.598 0.373325 5.78682
RightToes  5.82063e-011 0 -3.6325e-017
Spine  46.985 -2.18607 7.88595
Spine1  -23.1299 1.02359 -5.25239
HEad  -58.1858 -19.4543 18.5549
LeftShoulder1  0.094109 4.52421 20.1814
LeftArm  111.625 -73.6073 167.39
LeftForeArm  139.899 -76.1653 -135.142
LeftHand  -0.970796 1.29202 27.2507
RightShoulder  -0.195864 -0.50696 -17.3451
RightArm  -65.3084 53.3533 -18.1676
RightForeArm  -7.96599 -6.04985 2.19014
RightHand  0.124405 -8.86351 -5.46467
LeftUpLeg  -60.2566 -15.5417 9.73762
LeftLeg  66.3707 -2.81951 -6.32799
LeftFoot  -19.395 -0.369635 -6.90182
LeftToes  -1.1369e-010 2.7689e-011 -1.90827e-011
330
root  7.18107 32.1724 -7.13789 15.1677 -41.0344 -4.03265
RightUpLeg  -55.6822 -5.69708 13.7371
RightLeg  69.3142 -7.0462 -20.5862
RightFoot  -22.6706 0.422752 5.80848
RightToes  5.82063e-011 0 -3.6325e-017
Spine  47.6348 -1.99308 7.78594
Spine1  -22.8324 1.30358 -5.96556
HEad  -58.6583 -19.7198 17.6232
LeftShoulder1  0.115211 4.77931 19.9545
LeftArm  114.503 -73.2265 164.195
LeftForeArm  140.751 -75.9018 -136.193
LeftHand  -0.930139 1.51934 27.6301
RightShoulder  -0.215298 -0.0202919 -16.9019
RightArm  -64.1753 54.0512 -16.3251
RightForeArm  -5.50023 -6.15758 2.5711
RightHand  0.101935 -9.10299 -4.46747
LeftUpLeg  -61.3149 -15.0548 9.78556
LeftLeg  68.7512 -2.46552 -6.192
LeftFoot  -20.7717 -0.470063 -7.20583
LeftToes  -1.1369e-010 2.7689e-011 -1.90827e-011
331
root  7.27789 31.833 -7.11007 14.8983 -41.6563 -3.97321
RightUpLeg  -56.4207 -5.52238 13.6011
RightLeg  70.9169 -6.35881 -20.5397
RightFoot  -23.4868 0.466385 5.8781
RightToes  5.82063e-011 0 -3.6325e-017
Spine  48.1603 -1.79633 7.55041
Spine1  -22.1337 1.51742 -5.86755
HEad  -58.4109 -19.5147 16.3523
LeftShoulder1  0.143997 5.08387 20.0408
LeftArm  117.926 -73.3093 160.339
LeftForeArm  141.138 -75.8374 -136.48
LeftHand  -0.89126 1.75401 28.1623
RightShoulder  -0.231995 0.239233 -16.9135
RightArm  -63.7851 54.4448 -16.5088
RightForeArm  -4.66889 -6.2484 3.0263
RightHand  0.115254 -8.95318 -4.83618
LeftUpLeg  -62.0009 -14.725 9.4582
LeftLeg  70.4405 -2.23523 -6.11844
LeftFoot  -21.366 -0.502505 -7.18243
LeftToes  -1.1369e-010 2.7689e-011 -1.90827e-011
